HIERARCHY
ROOT hip
{
  OFFSET 0 0 0
  CHANNELS 6 Xposition Yposition Zposition Zrotation Yrotation Xrotation
  JOINT abdomen
  {
    OFFSET 0 20.6881 -0.73152
    CHANNELS 3 Zrotation Xrotation Yrotation
    JOINT chest
    {
      OFFSET 0 11.7043 -0.48768
      CHANNELS 3 Zrotation Xrotation Yrotation
      JOINT neck
      {
        OFFSET 0 22.1894 -2.19456
        CHANNELS 3 Zrotation Xrotation Yrotation
        JOINT head
        {
          OFFSET -0.24384 7.07133 1.2192
          CHANNELS 3 Zrotation Xrotation Yrotation
          JOINT leftEye
          {
            OFFSET 4.14528 8.04674 8.04672
            CHANNELS 3 Zrotation Xrotation Yrotation
            End Site
            {
              OFFSET 1 0 0
            }
          }
          JOINT rightEye
          {
            OFFSET -3.6576 8.04674 8.04672
            CHANNELS 3 Zrotation Xrotation Yrotation
            End Site
            {
              OFFSET 1 0 0
            }
          }
        }
      }
      JOINT rCollar
      {
        OFFSET -2.68224 19.2634 -4.8768
        CHANNELS 3 Zrotation Xrotation Yrotation
        JOINT rShldr
        {
          OFFSET -8.77824 -1.95073 1.46304
          CHANNELS 3 Zrotation Xrotation Yrotation
          JOINT rForeArm
          {
            OFFSET -28.1742 -1.7115 0.48768
            CHANNELS 3 Zrotation Xrotation Yrotation
            JOINT rHand
            {
              OFFSET -22.5879 0.773209 7.07136
              CHANNELS 3 Zrotation Xrotation Yrotation
              JOINT rThumb1
              {
                OFFSET -1.2192 -0.487915 3.41376
                CHANNELS 3 Zrotation Xrotation Yrotation
                JOINT rThumb2
                {
                  OFFSET -3.37035 -0.52449 3.41376
                  CHANNELS 3 Zrotation Xrotation Yrotation
                  End Site
                  {
                    OFFSET -1.78271 -1.18214 1.43049
                  }
                }
              }
              JOINT rIndex1
              {
                OFFSET -7.75947 0.938293 5.60832
                CHANNELS 3 Zrotation Xrotation Yrotation
                JOINT rIndex2
                {
                  OFFSET -2.54057 -0.884171 1.56538
                  CHANNELS 3 Zrotation Xrotation Yrotation
                  End Site
                  {
                    OFFSET -1.62519 -0.234802 1.16502
                  }
                }
              }
              JOINT rMid1
              {
                OFFSET -8.24714 1.18213 3.41376
                CHANNELS 3 Zrotation Xrotation Yrotation
                JOINT rMid2
                {
                  OFFSET -3.10165 -0.590103 1.0647
                  CHANNELS 3 Zrotation Xrotation Yrotation
                  End Site
                  {
                    OFFSET -2.48547 -0.328903 0.83742
                  }
                }
              }
              JOINT rRing1
              {
                OFFSET -8.82822 0.546677 1.51678
                CHANNELS 3 Zrotation Xrotation Yrotation
                JOINT rRing2
                {
                  OFFSET -2.60934 -0.819778 -0.0198488
                  CHANNELS 3 Zrotation Xrotation Yrotation
                  End Site
                  {
                    OFFSET -2.33842 -0.294052 0.168128
                  }
                }
              }
              JOINT rPinky1
              {
                OFFSET -8.27202 -0.0477905 -0.4584
                CHANNELS 3 Zrotation Xrotation Yrotation
                JOINT rPinky2
                {
                  OFFSET -1.82734 -0.647385 -0.700984
                  CHANNELS 3 Zrotation Xrotation Yrotation
                  End Site
                  {
                    OFFSET -1.69225 -0.51767 -0.607171
                  }
                }
              }
            }
          }
        }
      }
      JOINT lCollar
      {
        OFFSET 2.68224 19.2634 -4.8768
        CHANNELS 3 Zrotation Xrotation Yrotation
        JOINT lShldr
        {
          OFFSET 8.77824 -1.95073 1.46304
          CHANNELS 3 Zrotation Xrotation Yrotation
          JOINT lForeArm
          {
            OFFSET 28.1742 -1.7115 0.48768
            CHANNELS 3 Zrotation Xrotation Yrotation
            JOINT lHand
            {
              OFFSET 22.5879 0.773209 7.07136
              CHANNELS 3 Zrotation Xrotation Yrotation
              JOINT lThumb1
              {
                OFFSET 1.2192 -0.487915 3.41376
                CHANNELS 3 Zrotation Xrotation Yrotation
                JOINT lThumb2
                {
                  OFFSET 3.37035 -0.52449 3.41376
                  CHANNELS 3 Zrotation Xrotation Yrotation
                  End Site
                  {
                    OFFSET 1.78271 -1.18214 1.43049
                  }
                }
              }
              JOINT lIndex1
              {
                OFFSET 7.75947 0.938293 5.60832
                CHANNELS 3 Zrotation Xrotation Yrotation
                JOINT lIndex2
                {
                  OFFSET 2.54057 -0.884171 1.56538
                  CHANNELS 3 Zrotation Xrotation Yrotation
                  End Site
                  {
                    OFFSET 1.62519 -0.234802 1.16502
                  }
                }
              }
              JOINT lMid1
              {
                OFFSET 8.24714 1.18213 3.41376
                CHANNELS 3 Zrotation Xrotation Yrotation
                JOINT lMid2
                {
                  OFFSET 3.10165 -0.590103 1.0647
                  CHANNELS 3 Zrotation Xrotation Yrotation
                  End Site
                  {
                    OFFSET 2.48547 -0.328903 0.83742
                  }
                }
              }
              JOINT lRing1
              {
                OFFSET 8.82822 0.546677 1.51678
                CHANNELS 3 Zrotation Xrotation Yrotation
                JOINT lRing2
                {
                  OFFSET 2.60934 -0.819778 -0.0198488
                  CHANNELS 3 Zrotation Xrotation Yrotation
                  End Site
                  {
                    OFFSET 2.33842 -0.294052 0.168128
                  }
                }
              }
              JOINT lPinky1
              {
                OFFSET 8.27202 -0.0477905 -0.4584
                CHANNELS 3 Zrotation Xrotation Yrotation
                JOINT lPinky2
                {
                  OFFSET 1.82734 -0.647385 -0.700984
                  CHANNELS 3 Zrotation Xrotation Yrotation
                  End Site
                  {
                    OFFSET 1.69225 -0.51767 -0.607171
                  }
                }
              }
            }
          }
        }
      }
    }
  }
  JOINT rButtock
  {
    OFFSET -8.77824 4.35084 1.2192
    CHANNELS 3 Zrotation Xrotation Yrotation
    JOINT rThigh
    {
      OFFSET 0 -1.70687 -2.19456
      CHANNELS 3 Zrotation Xrotation Yrotation
      JOINT rShin
      {
        OFFSET 0 -36.8199 0.73152
        CHANNELS 3 Zrotation Xrotation Yrotation
        JOINT rFoot
        {
          OFFSET 0.73152 -45.1104 -5.12064
          CHANNELS 3 Zrotation Xrotation Yrotation
          End Site
          {
            OFFSET -1.1221 -3.69964 12.103
          }
        }
      }
    }
  }
  JOINT lButtock
  {
    OFFSET 8.77824 4.35084 1.2192
    CHANNELS 3 Zrotation Xrotation Yrotation
    JOINT lThigh
    {
      OFFSET 0 -1.70687 -2.19456
      CHANNELS 3 Zrotation Xrotation Yrotation
      JOINT lShin
      {
        OFFSET 0 -36.8199 0.73152
        CHANNELS 3 Zrotation Xrotation Yrotation
        JOINT lFoot
        {
          OFFSET -0.73152 -45.1104 -5.12064
          CHANNELS 3 Zrotation Xrotation Yrotation
          End Site
          {
            OFFSET 1.1221 -3.69964 12.103
          }
        }
      }
    }
  }
}
MOTION
Frames:	4
Frame Time:	0.00833333
-110.224 82.8919 25.8683 -175.024 -21.5031 -168.916 8.92663 0.548629 2.72942 4.74904 -14.7074 1.06636 -7.38412 2.76575 -4.87928 18.9057 2.79413 -10.9542 -0.0 0.0 0.0 -0.0 0.0 0.0 -1.56145e-13 2.28648e-13 1.2374e-13 9.19788 -24.2213 -19.459 -20.3798 -53.0501 113.284 -0.233927 13.6442 1.95504 6.48152e-10 -1.84683e-09 -1.11949e-09 1.11717e-09 -3.20755e-09 -1.94687e-09 6.48155e-10 -1.84682e-09 -1.1195e-09 7.73091 5.47488 0.417314 6.4815e-10 -1.84682e-09 -1.11949e-09 2.90554 0.965183 0.102902 6.48157e-10 -1.84682e-09 -1.11949e-09 10.2786 0.731801 0.0259123 6.48146e-10 -1.84682e-09 -1.11948e-09 2.22167 -0.733487 -0.20892 -1.56203e-13 2.28656e-13 1.23511e-13 -24.384 -20.3829 -0.779015 16.5504 -55.6007 -122.051 1.82724 35.3716 -5.72608 -6.98406e-10 3.93467e-10 -1.52659e-09 -1.24766e-09 6.36798e-10 -2.6193e-09 -6.98415e-10 3.93462e-10 -1.52657e-09 -7.73091 5.47488 -0.417314 -6.98406e-10 3.93464e-10 -1.52658e-09 -2.90554 0.965183 -0.102902 -6.98413e-10 3.93463e-10 -1.52659e-09 -10.2786 0.731801 -0.0259123 -6.98402e-10 3.93466e-10 -1.52661e-09 -2.22167 -0.733487 0.20892 -2.03217e-16 0.0 -3.88251e-19 26.9488 -10.7964 39.736 -0.16211 7.26264 -1.55017 -37.9458 -39.5001 -56.6507 2.03217e-16 0.0 3.88251e-19 16.5642 -16.5106 -21.8195 0.0236773 7.05507 -0.438918 6.36637 -11.0984 21.174
-110.183 82.8855 25.9401 -175.072 -21.604 -168.791 8.80093 0.587746 2.85231 4.59834 -14.6933 1.08753 -7.52511 2.77071 -4.8678 19.0206 2.96591 -10.9465 -0.0 0.0 0.0 -0.0 0.0 0.0 -1.52774e-13 3.51063e-13 2.41147e-13 9.10851 -24.2644 -19.6189 -20.3714 -53.0568 113.305 -0.231835 13.5848 1.94619 2.95949e-10 -2.26977e-09 -1.23925e-09 5.06725e-10 -3.93366e-09 -2.14875e-09 2.9595e-10 -2.26977e-09 -1.23925e-09 7.73091 5.47488 0.417314 2.95946e-10 -2.26977e-09 -1.23925e-09 2.90554 0.965183 0.102902 2.95954e-10 -2.26977e-09 -1.23924e-09 10.2786 0.731801 0.0259123 2.95943e-10 -2.26976e-09 -1.23923e-09 2.22167 -0.733487 -0.20892 -1.52829e-13 3.51069e-13 2.40961e-13 -24.3025 -20.3738 -0.925967 16.6345 -55.5538 -121.87 1.83011 35.395 -5.73103 -3.01971e-10 1.35897e-09 -2.72944e-09 -5.87027e-10 2.29311e-09 -4.7088e-09 -3.01981e-10 1.35896e-09 -2.72943e-09 -7.73091 5.47488 -0.417314 -3.01973e-10 1.35896e-09 -2.72943e-09 -2.90554 0.965183 -0.102902 -3.01979e-10 1.35896e-09 -2.72944e-09 -10.2786 0.731801 -0.0259123 -3.01966e-10 1.35897e-09 -2.72945e-09 -2.22167 -0.733487 0.20892 -2.03217e-16 0.0 -3.88251e-19 26.8949 -10.9605 39.6212 -0.161298 7.22564 -1.55166 -37.8533 -39.5866 -56.5087 2.03217e-16 0.0 3.88251e-19 16.5115 -16.7201 -21.8348 0.0233458 7.0431 -0.432518 6.2817 -10.7989 21.2852
-110.15 82.8827 25.9966 -175.109 -21.6814 -168.709 8.72535 0.63089 2.95646 4.46897 -14.682 1.10511 -7.67683 2.79956 -4.8484 19.1181 3.1278 -10.9227 -0.0 0.0 0.0 -0.0 0.0 0.0 -1.49245e-13 3.89813e-13 2.99022e-13 9.05743 -24.2807 -19.7122 -20.3636 -53.0631 113.324 -0.230979 13.5604 1.94257 2.68153e-11 -2.43574e-09 -1.26546e-09 3.99176e-11 -4.21648e-09 -2.19026e-09 2.68153e-11 -2.43573e-09 -1.26547e-09 7.73091 5.47488 0.417314 2.68124e-11 -2.43574e-09 -1.26546e-09 2.90554 0.965183 0.102902 2.68212e-11 -2.43573e-09 -1.26546e-09 10.2786 0.731801 0.0259123 2.68095e-11 -2.43573e-09 -1.26544e-09 2.22167 -0.733487 -0.20892 -1.4929e-13 3.8982e-13 2.98873e-13 -24.2482 -20.3544 -1.04145 16.6949 -55.5199 -121.74 1.83564 35.4399 -5.74059 9.41985e-11 1.92131e-09 -3.21879e-09 8.93147e-11 3.26511e-09 -5.56572e-09 9.41882e-11 1.9213e-09 -3.21879e-09 -7.73091 5.47488 -0.417314 9.41955e-11 1.9213e-09 -3.21879e-09 -2.90554 0.965183 -0.102902 9.41904e-11 1.9213e-09 -3.2188e-09 -10.2786 0.731801 -0.0259123 9.42041e-11 1.92131e-09 -3.21881e-09 -2.22167 -0.733487 0.20892 -2.03217e-16 0.0 -3.88251e-19 26.8506 -11.0922 39.5122 -0.160851 7.19314 -1.55026 -37.7586 -39.6329 -56.3831 2.03217e-16 0.0 3.88251e-19 16.473 -16.865 -21.8706 0.0227515 7.01163 -0.427626 6.2303 -10.6165 21.3579
-110.122 82.8828 26.0386 -175.133 -21.7369 -168.664 8.71187 0.688323 3.03805 4.36625 -14.6763 1.1188 -7.8698 2.87039 -4.81702 19.2252 3.26629 -10.869 -0.0 0.0 0.0 -0.0 0.0 0.0 -1.49418e-13 3.06886e-13 2.74948e-13 9.06882 -24.2572 -19.71 -20.3549 -53.0701 113.346 -0.232036 13.5909 1.9471 -1.12561e-10 -2.24458e-09 -1.16538e-09 -2.02722e-10 -3.88337e-09 -2.01553e-09 -1.1256e-10 -2.24457e-09 -1.1654e-09 7.73091 5.47488 0.417314 -1.12563e-10 -2.24458e-09 -1.16538e-09 2.90554 0.965183 0.102902 -1.12555e-10 -2.24458e-09 -1.16538e-09 10.2786 0.731801 0.0259123 -1.12566e-10 -2.24458e-09 -1.16536e-09 2.22167 -0.733487 -0.20892 -1.49438e-13 3.06893e-13 2.74835e-13 -24.2355 -20.3189 -1.12053 16.7259 -55.5025 -121.674 1.84642 35.5274 -5.75921 5.27282e-10 1.91019e-09 -2.64416e-09 8.53849e-10 3.2654e-09 -4.58568e-09 5.27272e-10 1.91018e-09 -2.64416e-09 -7.73091 5.47488 -0.417314 5.2728e-10 1.91019e-09 -2.64416e-09 -2.90554 0.965183 -0.102902 5.27275e-10 1.91019e-09 -2.64417e-09 -10.2786 0.731801 -0.0259123 5.27287e-10 1.91019e-09 -2.64418e-09 -2.22167 -0.733487 0.20892 -2.03217e-16 0.0 -3.88251e-19 26.8175 -11.1846 39.4107 -0.161032 7.1639 -1.54458 -37.6651 -39.628 -56.2795 2.03217e-16 0.0 3.88251e-19 16.4528 -16.9231 -21.9423 0.0216884 6.94781 -0.424833 6.23186 -10.6153 21.3718
